<svg width="100" height="100" viewBox="0 0 100 100" fill="none" xmlns="http://www.w3.org/2000/svg">
<g clip-path="url(#clip0_4_3)">
<rect y="26" width="100" height="49" rx="9" fill="#E9E9E9"/>
<path d="M30.9584 33.4263L26.2562 69H12.2157L6.87637 33.4263H16.6322C17.7602 43.2261 18.5658 51.5098 19.0492 58.2773C19.5326 51.4365 20.038 45.3574 20.5653 40.04L21.2025 33.4263H30.9584ZM56.7183 33.4263V57.2007C56.7183 59.896 56.6304 61.793 56.4546 62.8916C56.2788 63.9756 55.7588 65.0962 54.8945 66.2534C54.0303 67.396 52.8877 68.2676 51.4668 68.8682C50.0605 69.4541 48.3979 69.7471 46.479 69.7471C44.355 69.7471 42.48 69.3955 40.854 68.6924C39.228 67.9893 38.0122 67.0737 37.2065 65.9458C36.4009 64.8179 35.9248 63.6313 35.7783 62.3862C35.6318 61.1265 35.5586 58.4897 35.5586 54.4761V33.4263H44.8091V60.1011C44.8091 61.6538 44.8896 62.6499 45.0508 63.0894C45.2266 63.5142 45.5708 63.7266 46.0835 63.7266C46.6694 63.7266 47.043 63.4922 47.2041 63.0234C47.3799 62.54 47.4678 61.4121 47.4678 59.6396V33.4263H56.7183ZM91.9923 33.4263V69H83.9063V44.9839L80.6764 69H74.9415L71.5357 45.5332V69H63.4498V33.4263H75.4249C75.7765 35.5649 76.15 38.0845 76.5455 40.9849L77.8199 50.0376L79.9293 33.4263H91.9923Z" fill="#2F2D35"/>
</g>
<defs>
<clipPath id="clip0_4_3">
<rect y="26" width="100" height="49" rx="9" fill="white"/>
</clipPath>
</defs>
</svg>
